<?xml version="1.0" encoding="UTF-8"?>
<svg fill="#CC0000" width="100pt" height="100pt" version="1.1" viewBox="0 0 100 100" xmlns="http://www.w3.org/2000/svg">
 <path d="m50.41 13.168l-37.445 70.371 70.367-49.793-79.422-2.4688 76.133 41.152-33.336-72.43-2.8789 86.418 49.793-62.137-78.602 35.801 77.777 16.871-67.078-54.32 19.344 77.367 18.52-84.363-60.086 51.852 83.539-20.984-73.25-30.867 55.969 65.844-4.9375-79.422-33.746 79.422 68.723-39.918-86.008 4.9414 66.258 44.031-42.801-74.898-9.875 79.012 48.148-72.016-75.309 26.75 85.594 10.699-57.199-55.145 28.805 81.48 23.871-76.129-60.496 62.141 79.012-12.348-82.305-26.336 46.094 65.02z" fill-rule="evenodd"/>
</svg>
