<?xml version="1.0" encoding="UTF-8"?>
<svg width="100pt" height="100pt" version="1.1" viewBox="0 0 100 100" xmlns="http://www.w3.org/2000/svg">
 <path d="m74.367 48.652l23.414-8.3867-24.871 0.12891 19.133-15.895-23.34 8.625 12.535-21.477-19 16.086 4.3906-24.473-12.434 21.605-4.4102-24.52-4.1914 24.52-12.328-21.605 4.4453 24.473-18.977-16.086 12.547 21.477-23.328-8.625 19.137 15.891-24.871-0.125 23.414 8.3867-21.16 8 22.617 0.26172-13.492 12.613 17.688-5.3516-5.332 12.145 11.301-6.4766c0.17578 3.4102 1.7461 6.2969 2.418 7.3672l0.85156 2.8477-0.52344 0.66016v0.59375l1-0.33203v0.95312l-1 0.33203v0.98047l1-0.33203v0.95313l-1 0.32812v0.98047l1-0.33203v0.95312l-1 0.32812v0.98047l1-0.33203v0.95312l-1 0.32813v0.98047l1-0.33203v0.95312l-1 0.33203v0.98047l1-0.33203v0.95312l-1 0.32812v1.0859l6.2617 6.9961h7.3555l6.918-6.8984 0.23047-0.32031-0.76562 0.28125v-0.95312l0.77344-0.32812 0.12109-0.98047-0.89453 0.32812v-0.95312l0.79297-0.33594 0.125-0.98047-0.91797 0.33594v-0.95312l0.8125-0.34375 0.12109-0.98047-0.93359 0.34766v-0.95312l0.82812-0.34766 0.12109-0.98047-0.94922 0.34766v-0.95312l0.84766-0.35547 0.12109-0.98047-0.96875 0.35547v-0.95313l1.0469-0.35937-0.046875-0.27344v-0.019531l-0.72656-1.8516 0.26562-2.0234c1.6055-1.4375 1.9609-4.0352 2.0039-8.0977l11.523 6.4922-5.3398-12.145 17.684 5.3516-13.496-12.609 22.617-0.26172zm12.543-21.188l-16.078 13.352c-0.63672-2.2383-1.6953-4.3555-3.0977-6.2578zm-9.457-11.273l-10.293 17.621c-1.4219-1.7617-3.1406-3.3203-5.0664-4.5977zm-16.336 12.414c-1.9727-1.168-4.1367-2.0469-6.418-2.5703l10.012-17.199zm-7.8047-2.8438c-1.1094-0.17969-2.2422-0.27734-3.3906-0.27734-1.1562 0-2.3164 0.11719-3.4727 0.30859l3.3359-19.516zm-18.02-16.926l9.8281 17.227c-2.1719 0.5-4.2852 1.3242-6.2578 2.4414zm-12.742 7.3555l15.262 12.938c-1.0273 0.65625-2.0156 1.3789-2.9336 2.1914-0.80078 0.70703-1.5078 1.4648-2.1758 2.2461zm-9.4609 11.273l18.871 6.9766c-1.4414 1.8828-2.4805 3.9414-3.1289 6.0938zm-5.0312 13.828l20.527 0.10547c-0.33984 1.3672-0.52344 2.7656-0.52344 4.1836 0 1.0156 0.082031 1.9961 0.21875 2.9531zm25.496 20.977l-17.086 5.5703 13.406-11.941-19.844-0.18359 18.277-6.9531c0.82422 5.3711 3.5625 9.8438 5.8438 13.551 1.5273 2.4805 2.8477 4.6445 3.0312 6.2383l-9.125 5.4375zm15.242 0.93359c-0.48047 0.19531-0.87109 0.50391-1.1797 0.83203l-6.0469-15.824c0.51953-0.22266 1.0352-0.46875 1.5312-0.69531 0.98047-0.44531 1.9453-0.40234 2.9492-0.76172l1.8438 9.2461h-0.33203l1.4492 1.1133zm-0.29297-7.2031l-1.8828-9.4062c1.1016-0.35156 2.2617-0.45703 3.543-0.49219 0.74219 0.039063 2.2891 0.23828 3.3906 0.58984l-2.0352 9.3086zm2.7227 7.2812l-0.21484-6.168 1.4531-1.1133h-0.33594l1.8438-9.2422c1.0039 0.35938 1.9727 0.51172 2.9492 0.95703 0.49609 0.22656 1.0117 0.38672 1.5312 0.60938l-6.0469 15.797c-0.30859-0.32422-0.69922-0.64453-1.1797-0.83984zm9.0508 5.7383c-0.003906 2.5938-0.089844 4.3555-0.54297 6.0586-0.41016 1.3633-2.7539 2.5977-6.2266 3.0664l-0.46094-5.832s-0.96094-2.4453-0.11719-3.6602c0.37891-0.54297 0.72656-2.2812 0.035156-3.6953l6.8594-17.961-0.83594-0.32031-0.37891 0.99609c-0.50781-0.21875-1.0039-0.44531-1.4922-0.66797-1.0195-0.46484-2.0195-0.92578-3.0664-1.2969l0.29297-1.3047-0.54688-0.12109-0.18359 1.2344c-1.1211-0.35938-2.7148-0.59375-3.457-0.63281-1.3008 0.035157-2.4883 0.27344-3.6094 0.63281l-0.25781-1.2344-0.58203 0.12109 0.27344 1.3047c-1.0469 0.37109-2.0547 0.83203-3.0742 1.2969-0.48438 0.22266-0.98828 0.44922-1.4961 0.66797l-0.38281-0.99609-0.83594 0.32031 6.8594 17.961c-0.69141 1.4141-0.34375 3.1523 0.035157 3.6953 0.84375 1.2148-0.11719 3.6602-0.11719 3.6602l-0.44922 5.7188c-2.8984-0.51172-4.8945-1.6055-5.8633-3.0234-0.70703-1.3281-1.043-2.7148-1.2148-5.9805-0.11719-2.2773-1.4688-4.7539-3.3945-7.8867-2.5703-4.1797-5.7656-9.3789-5.7656-15.562 0-9.3516 9.3555-17.867 19.633-17.867 10.309 0 19.352 8.3516 19.352 17.867 0 5.2656-2.5352 9.4336-4.9922 13.461-2.0508 3.3789-3.9922 6.5703-3.9961 9.9805zm23.199-1.1797l-17.137-5.5703 5.3906 11.715-9.1758-5.3477c0.14844-2.6602 1.7578-5.3477 3.6445-8.4375 2.4922-4.0938 5.3125-8.7266 5.3125-14.621 0-1.4219-0.18359-2.8242-0.51953-4.1797l20.957-0.10547-20.547 7.3555 18.559 7.0625-19.855 0.18359z"/>
</svg>
