<?xml version="1.0" encoding="UTF-8"?>
<svg fill="#CC0000" width="100pt" height="100pt" version="1.1" viewBox="0 0 100 100" xmlns="http://www.w3.org/2000/svg">
 <g>
  <path d="m85.34 48.422c-3.6602-3.6562-9.5898-3.6562-13.25 0l-26.82 26.809c-0.089843 0.097656-0.17188 0.19922-0.25 0.30859-0.53125 0.39844-0.91406 0.96094-1.0898 1.6016l-3.3008 12.32c-0.28125 1.0547 0.03125 2.1797 0.82031 2.9375 0.78906 0.75781 1.9258 1.0273 2.9727 0.70312l12-3.7383v-0.003906c0.79297 0 1.5547-0.31641 2.1172-0.87891l26.801-26.801c3.6602-3.6641 3.6602-9.5977 0-13.258zm-15.602 10.828l4.7734 4.75-18.102 18.102-4.7695-4.7695zm-21.117 23.57l2 2-2.8281 0.87891zm32.48-25.391l-2.3398 2.3398-4.7617-4.7695 2.3398-2.3398c1.3164-1.3164 3.4531-1.3164 4.7695 0s1.3164 3.4531 0 4.7695z"/>
  <path d="m35.922 76.238h-11.094v-28.727h16.172c1.4805 4.6602 6.1367 7.5508 10.973 6.8008 4.8359-0.74609 8.4023-4.9102 8.4023-9.8008 0-4.8945-3.5664-9.0547-8.4023-9.8047-4.8359-0.75-9.4922 2.1406-10.973 6.8047h-16.172v-15.383c4.6641-1.4805 7.5547-6.1367 6.8047-10.973s-4.9102-8.4023-9.8047-8.4023c-4.8906 0-9.0508 3.5664-9.8008 8.4023s2.1406 9.4922 6.8008 10.973v53.109c0 1.6602 1.3438 3 3 3h14.094c1.6562 0 3-1.3398 3-3 0-1.6562-1.3438-3-3-3zm14.52-35.637c1.5859 0 3.0117 0.95313 3.6211 2.418 0.60547 1.4648 0.26953 3.1523-0.85156 4.2734-1.1211 1.1211-2.8047 1.457-4.2695 0.84766-1.4648-0.60547-2.4219-2.0352-2.4219-3.6211 0-1.0391 0.41406-2.0352 1.1484-2.7695 0.73438-0.73828 1.7305-1.1484 2.7734-1.1484zm-28.613-27.84c1.5859 0 3.0156 0.95312 3.625 2.418 0.60547 1.4648 0.26953 3.1523-0.85156 4.2734-1.1211 1.1211-2.8086 1.457-4.2734 0.84766-1.4648-0.60547-2.418-2.0352-2.418-3.6211 0-1.0391 0.41406-2.0352 1.1484-2.7734 0.73438-0.73438 1.7305-1.1445 2.7695-1.1445z"/>
 </g>
</svg>
