<?xml version="1.0" encoding="UTF-8"?>
<svg fill="#CC0000" width="100pt" height="100pt" version="1.1" viewBox="0 0 100 100" xmlns="http://www.w3.org/2000/svg">
 <g>
  <path d="m83.898 49.801c-2.8984-2.8984-7.5-2.8984-10.398 0l-26.801 26.898c-0.10156 0.10156-0.19922 0.19922-0.19922 0.39844-0.30078 0.10156-0.5 0.39844-0.60156 0.69922l-3.2969 12.203c-0.10156 0.5 0.19922 1.1016 0.69922 1.1992h0.30078 0.30078l12.398-3.8984c0.30078 0.10156 0.69922 0 0.89844-0.19922l26.801-26.898c2.8008-2.8047 2.8008-7.5039-0.10156-10.402zm-14.199 6.5977l7.6016 7.6016-20.902 21-7.6016-7.6016zm-22.098 22.602l6.8008 6.8008-9.5 3zm34.898-20.199l-3.8008 3.8008-7.5-7.6016 3.8008-3.8008c2.1016-2.1016 5.5-2.1016 7.6016 0 2 2.1016 2 5.5-0.10156 7.6016z"/>
  <path d="m35.898 78.199h-13.098v-32.699h19.801c0.60156 4.3008 4.5 7.3984 8.8984 6.8984 4.3008-0.60156 7.3984-4.5 6.8984-8.8984s-4.5-7.3984-8.8984-6.8984c-3.6016 0.5-6.3984 3.3008-6.8984 6.8984h-19.801v-19c4.3008-0.60156 7.3984-4.5 6.8984-8.8984-0.5-4.3984-4.5-7.3984-8.8984-6.8984-4.3008 0.60156-7.3984 4.5-6.8984 8.8984 0.5 3.6016 3.3008 6.3984 6.8984 6.8984v54.699c0 0.60156 0.39844 1 1 1h14.102c0.60156 0 1-0.39844 1-1-0.003906-0.59766-0.40234-1-1.0039-1zm14.5-39.598c3.3008 0 5.8984 2.6992 5.8984 5.8984s-2.6992 5.8984-5.8984 5.8984c-3.1992 0-5.8984-2.6992-5.8984-5.8984s2.6992-5.8984 5.8984-5.8984zm-34.5-21.902c0-3.3008 2.6992-5.8984 5.8984-5.8984s5.8984 2.6992 5.8984 5.8984-2.6992 5.8984-5.8984 5.8984c-3.1953 0.003906-5.8984-2.6992-5.8984-5.8984z"/>
 </g>
</svg>
