<?xml version="1.0" encoding="UTF-8"?>
<svg fill="#CC0000" width="100pt" height="100pt" version="1.1" viewBox="0 0 100 100" xmlns="http://www.w3.org/2000/svg">
 <path d="m12.738 86.5h68.383v-0.058594h1.1211-0.003907c1.8789 0 3.5078-1.3047 3.9102-3.1406l8.9297-40.449c0.52344-2.3672-0.058594-4.8438-1.5742-6.7305-1.5195-1.8906-3.8125-2.9883-6.2344-2.9922h-1.1484v-3.3789c0-2.1211-0.84375-4.1562-2.3438-5.6562s-3.5352-2.3438-5.6562-2.3438h-30.301l-15.398-7.8203c-0.5625-0.28516-1.1836-0.42969-1.8125-0.42969h-17.871c-4.418 0-8 3.582-8 8v57c0 2.1211 0.84375 4.1562 2.3438 5.6562s3.5352 2.3438 5.6562 2.3438zm66.262-8.0586h-60.84l8.2305-37.309 60.871-0.003906zm-49.34-56.941l15.398 7.8203c0.5625 0.28516 1.1836 0.42969 1.8125 0.42969h31.25v3.3789h-51.73c-3.75 0.019532-6.9883 2.625-7.8125 6.2812l-5.8398 26.449v-44.359z"/>
</svg>
