<?xml version="1.0" encoding="UTF-8"?>
<svg fill="#CC0000" width="100pt" height="100pt" version="1.1" viewBox="0 0 100 100" xmlns="http://www.w3.org/2000/svg">
 <path d="m58.48 9.4609h-31.371c-4.9688 0-9 4.0273-9 9v63.078c0 4.9727 4.0312 9 9 9h45.781c4.9688 0 9-4.0273 9-9v-48.211c0-0.26172-0.10547-0.51172-0.28906-0.69922l-22.402-22.867c-0.1875-0.19531-0.44922-0.30469-0.71875-0.30078zm0.83984 3.2891l20.102 20.52h-19.094c-0.55078 0-1-0.44531-1-1zm13.57 75.789h-45.781c-3.8672 0-7-3.1328-7-7v-63.078c0-3.8672 3.1328-7 7-7h30.219v20.809c0 1.6562 1.3438 3 3 3h19.562v46.27c0 1.8594-0.73828 3.6367-2.0508 4.9492s-3.0938 2.0508-4.9492 2.0508z"/>
</svg>
