<?xml version="1.0" encoding="UTF-8"?>
<svg fill="#CC0000" width="100pt" height="100pt" version="1.1" viewBox="0 0 100 100" xmlns="http://www.w3.org/2000/svg">
 <path d="m93.703 43.703h-37.406v-37.406c0-3.4805-2.8203-6.3008-6.3008-6.3008-3.4805 0-6.3008 2.8203-6.3008 6.3008v37.406h-37.398c-3.4805 0-6.3008 2.8203-6.3008 6.3008 0 3.4805 2.8203 6.3008 6.3008 6.3008h37.406v37.398c0 3.4805 2.8203 6.3008 6.3008 6.3008 3.4805 0 6.3008-2.8203 6.3008-6.3008v-37.406h37.398c3.4805 0 6.3008-2.8203 6.3008-6.3008 0-3.4805-2.8203-6.3008-6.3008-6.3008z"/>
</svg>
