<?xml version="1.0" encoding="UTF-8"?>
<svg fill="#CC0000" width="100pt" height="100pt" version="1.1" viewBox="0 0 100 100" xmlns="http://www.w3.org/2000/svg">
 <path d="m86.254 13.746c-7.5117-7.5117-17.5-11.648-28.125-11.648-10.621 0-20.609 4.1367-28.125 11.648-14.309 14.309-15.402 36.895-3.3047 52.484l-23.137 23.137c-1.9531 1.9531-1.9531 5.1172 0 7.0703 0.97656 0.97656 2.2578 1.4648 3.5352 1.4648s2.5586-0.48828 3.5352-1.4648l23.137-23.137c6.9414 5.4023 15.426 8.3398 24.363 8.3398 10.625 0 20.609-4.1367 28.121-11.648 7.5117-7.5117 11.648-17.5 11.648-28.125 0-10.621-4.1367-20.609-11.648-28.121zm-7.0703 49.18c-5.6211 5.6211-13.098 8.7188-21.051 8.7188-7.9531 0-15.43-3.0977-21.055-8.7188-11.609-11.609-11.609-30.496 0-42.105 5.625-5.625 13.102-8.7227 21.055-8.7227 7.9531 0 15.43 3.0977 21.055 8.7227 5.625 5.6211 8.7227 13.098 8.7227 21.051-0.007812 7.9492-3.1016 15.43-8.7266 21.055z"/>
</svg>
