<?xml version="1.0" encoding="UTF-8"?>
<svg width="100pt" height="100pt" version="1.1" viewBox="0 0 100 100" xmlns="http://www.w3.org/2000/svg">
 <g>
  <path d="m63.891 35.949l9.5625 13.887-9.5625 13.895 34.465-13.895z"/>
  <path d="m26.543 49.836l9.5664-13.887-34.465 13.887 34.465 13.895z"/>
  <path d="m73.555 59.836l-2.125 11.535-11.473 2.1172 3.9336-9.7578-13.895 9.5664-13.891-9.5664 13.891 34.461 9.9453-24.672 23.73 10.094z"/>
  <path d="m71.43 28.305l2.125 11.531 10.117-23.773-23.73 10.094-9.9414-24.676-13.895 34.469 13.895-9.5703 13.891 9.5703-3.9336-9.7617z"/>
  <path d="m28.363 28.305l11.531-2.125-23.773-10.117 10.113 23.773z"/>
  <path d="m26.234 59.836l-10.113 23.777 23.773-10.117-11.535-2.125z"/>
 </g>
</svg>
