<?xml version="1.0" standalone="no"?>
<!DOCTYPE svg PUBLIC "-//W3C//DTD SVG 20010904//EN"
 "http://www.w3.org/TR/2001/REC-SVG-20010904/DTD/svg10.dtd">
<svg version="1.0" xmlns="http://www.w3.org/2000/svg"
 width="1024.000000pt" height="1024.000000pt" viewBox="0 0 1024.000000 1024.000000"
 preserveAspectRatio="xMidYMid meet">
<metadata>
Created by potrace 1.11, written by Peter Selinger 2001-2013
</metadata>
<g transform="translate(0.000000,1024.000000) scale(0.100000,-0.100000)"
fill="#000000" stroke="none">
<path d="M4881 8604 c-26 -34 -25 -19 -25 -224 -1 -181 -9 -224 -44 -246 -20
-13 -171 -57 -251 -73 -30 -7 -125 -14 -210 -17 -212 -8 -212 -9 -243 -24 -91
-44 -6 -199 203 -374 78 -65 151 -72 383 -36 54 8 71 8 77 -2 4 -6 6 -15 5
-18 -2 -3 -6 -44 -10 -92 -6 -86 -17 -131 -33 -141 -9 -5 -72 -14 -168 -22
-33 -3 -94 -10 -135 -16 -74 -11 -90 -14 -140 -24 -14 -2 -41 -7 -60 -10 -35
-5 -65 -11 -110 -21 -34 -7 -65 -12 -125 -18 -27 -3 -75 -10 -105 -15 -66 -11
-143 -6 -184 11 -23 9 -31 9 -34 0 -3 -11 -53 -62 -86 -90 -20 -16 -20 -49 0
-87 9 -16 37 -70 62 -120 57 -115 75 -132 149 -140 32 -3 75 -10 96 -16 20 -5
41 -8 45 -5 4 2 39 7 77 10 133 11 190 18 225 26 95 24 214 38 315 36 l90 -1
3 -47 c2 -25 -4 -72 -12 -105 -8 -32 -22 -103 -31 -158 -17 -97 -33 -145 -61
-172 -7 -8 -69 -33 -136 -57 -68 -24 -163 -60 -213 -80 -178 -75 -185 -77
-185 -62 0 8 -5 16 -11 18 -7 2 -6 18 4 48 8 25 22 70 31 101 8 30 24 63 35
73 31 28 17 46 -27 34 -20 -5 -53 -14 -72 -18 -24 -7 -36 -6 -41 2 -12 19 -81
-7 -136 -51 -27 -21 -79 -74 -115 -117 -68 -82 -203 -275 -233 -335 -10 -18
-24 -38 -31 -42 -8 -4 -21 -22 -30 -38 -14 -28 -14 -33 2 -57 14 -21 18 -47
17 -122 -2 -121 8 -141 90 -179 l63 -30 51 17 c43 14 58 27 97 79 51 70 98
103 193 139 85 32 143 62 143 74 0 19 2 25 14 50 7 14 23 46 35 71 20 41 31
50 109 89 48 23 96 47 107 53 11 6 35 11 52 13 29 1 31 0 23 -17 -36 -66 -340
-423 -514 -603 -75 -77 -97 -106 -82 -106 2 0 29 12 61 26 31 15 69 26 84 26
59 -2 167 32 224 70 50 34 57 36 57 19 0 -35 20 -34 78 5 31 21 68 44 81 51
13 7 38 26 55 41 17 15 56 40 86 54 97 47 256 228 326 371 21 42 43 78 49 81
6 2 44 -15 83 -39 39 -24 83 -47 97 -52 40 -13 172 -124 183 -153 24 -67 52
-160 61 -206 18 -92 78 -253 106 -286 32 -38 67 -47 165 -44 77 2 119 23 148
75 25 46 22 98 -17 281 -29 134 -29 136 -26 441 2 215 6 312 15 328 6 13 30
31 53 41 37 17 64 19 222 16 211 -3 253 -14 310 -78 29 -34 33 -43 23 -56 -26
-31 -249 -122 -298 -122 -41 0 -48 -63 -9 -73 10 -3 19 -12 19 -21 0 -11 9
-16 29 -16 16 0 41 -4 54 -9 14 -6 45 -13 68 -16 24 -4 50 -11 57 -17 6 -6 12
-8 12 -5 0 10 113 -43 135 -63 11 -10 45 -29 76 -44 30 -14 68 -39 82 -56 15
-16 34 -30 43 -30 27 0 115 -62 109 -78 -3 -9 1 -12 13 -10 10 1 29 -4 43 -13
39 -24 138 -59 171 -59 34 0 62 13 93 44 12 11 42 37 68 56 55 42 72 76 64
131 -6 47 -96 233 -129 269 -34 37 -91 104 -112 134 -26 36 -148 154 -211 204
-58 46 -137 86 -192 97 -21 5 -45 11 -53 14 -8 2 -187 5 -397 5 -326 1 -384 3
-396 16 -8 8 -20 49 -26 90 -7 41 -19 97 -27 124 -18 63 -18 72 2 80 44 17
496 27 599 13 246 -33 301 -47 392 -99 40 -22 57 -27 70 -19 13 6 36 5 73 -5
71 -18 110 -18 139 2 22 16 23 20 17 107 -6 80 -10 95 -42 142 -19 29 -45 60
-58 69 -14 8 -92 83 -176 166 l-151 152 -47 -11 c-66 -15 -214 -22 -537 -27
-154 -2 -298 -6 -320 -8 -104 -11 -243 -20 -279 -17 -27 2 -17 59 25 146 57
117 66 125 159 144 139 27 500 35 590 13 115 -28 135 -31 173 -21 22 6 51 10
65 9 57 -4 75 1 104 30 32 32 32 30 13 125 -23 115 -57 153 -263 288 -208 137
-315 167 -448 124 -27 -9 -74 -18 -104 -21 -30 -3 -71 -10 -90 -16 -53 -15
-157 -15 -177 1 -8 8 -24 33 -34 57 -37 86 -123 186 -198 229 -63 36 -175 93
-184 93 -3 0 -15 -12 -26 -26z m338 -1693 c13 -8 16 -20 26 -106 3 -32 8 -62
10 -65 2 -3 6 -26 10 -50 3 -25 8 -53 11 -63 4 -11 -6 -29 -28 -51 -27 -27
-49 -37 -126 -55 -52 -11 -98 -21 -103 -21 -5 0 -9 82 -9 194 0 231 -5 223
118 224 43 0 84 -3 91 -7z m51 -587 c11 -11 15 -41 16 -122 1 -59 3 -131 4
-160 1 -29 -1 -57 -6 -62 -19 -17 -360 99 -379 129 -8 14 65 117 97 137 17 10
42 27 57 36 92 61 175 77 211 42z"/>
<path d="M4828 4993 c-8 -10 -20 -41 -26 -68 -11 -43 -10 -57 3 -95 16 -45 20
-72 31 -225 8 -97 11 -311 5 -344 -4 -23 -40 -45 -92 -55 -13 -2 -58 -13 -99
-25 -294 -80 -421 -99 -677 -100 -119 -1 -136 -10 -147 -80 -5 -31 -1 -51 13
-79 26 -50 175 -194 231 -222 25 -12 55 -31 67 -42 21 -19 31 -20 220 -14 298
10 365 18 444 50 11 5 18 1 22 -13 5 -19 -31 -75 -105 -166 -127 -155 -191
-227 -334 -370 -179 -180 -202 -200 -414 -370 -74 -59 -153 -123 -175 -142
-78 -66 -167 -139 -282 -231 -78 -61 -96 -82 -73 -82 6 0 10 6 10 13 0 8 3 7
10 -3 6 -10 4 -20 -6 -31 -7 -8 -14 -20 -14 -25 0 -19 -73 -67 -105 -69 l-33
-2 16 26 c16 25 16 26 -3 11 -119 -94 -256 -221 -249 -231 3 -5 21 -6 40 -3
33 5 34 4 34 -25 0 -17 -4 -31 -8 -31 -4 0 -13 -13 -19 -30 -10 -27 -9 -30 7
-30 10 0 52 18 94 40 41 22 82 40 90 40 8 0 37 11 64 25 28 14 61 25 75 25 16
0 28 7 32 19 3 10 21 29 39 42 19 13 70 52 115 87 44 34 95 65 112 69 31 6
134 56 154 74 5 5 21 9 36 9 32 0 122 66 115 85 -2 7 3 16 12 19 9 3 37 21 62
41 25 19 50 38 57 41 20 10 104 96 136 141 16 24 40 46 51 49 42 13 96 60 115
99 29 60 81 103 170 139 36 14 46 15 53 4 12 -18 2 -141 -17 -208 -8 -30 -21
-84 -29 -120 -18 -80 -37 -134 -67 -191 -25 -47 -30 -68 -29 -138 1 -28 8 -53
20 -69 20 -25 20 -76 -1 -96 -13 -14 -11 -40 5 -73 7 -15 24 -50 37 -76 12
-27 42 -68 65 -90 26 -27 53 -70 74 -119 23 -54 39 -78 54 -82 12 -3 31 -14
43 -26 l22 -20 66 32 c37 17 78 44 93 60 15 15 32 28 39 28 35 0 51 166 52
545 0 340 3 449 15 521 4 22 8 53 10 69 17 138 40 152 127 79 22 -19 45 -34
49 -34 5 0 28 -17 52 -37 38 -33 257 -189 306 -218 9 -5 19 -12 22 -15 33 -33
257 -192 440 -313 90 -60 334 -232 373 -264 17 -13 42 -23 61 -23 18 0 70 -11
117 -25 82 -24 86 -24 149 -8 36 8 87 16 113 17 32 2 57 10 75 25 15 12 44 30
64 39 21 9 38 23 38 29 0 17 53 43 88 43 15 0 33 5 39 11 6 6 31 12 55 13 23
1 53 7 65 14 12 7 26 12 30 11 4 -1 23 5 42 13 25 12 44 13 74 6 26 -6 42 -5
47 1 3 6 24 13 45 17 51 7 106 33 123 56 26 36 57 60 105 80 26 11 47 26 47
33 0 24 -74 49 -245 81 -53 10 -269 56 -344 73 -47 11 -101 22 -120 25 -20 3
-52 8 -71 11 -19 3 -46 8 -58 11 -13 3 -43 7 -65 10 -71 9 -135 29 -312 93
-222 82 -243 92 -490 242 -218 132 -231 140 -458 286 -76 48 -177 112 -225
141 -48 29 -109 74 -137 98 -27 25 -62 53 -77 61 -28 17 -48 72 -42 115 14
101 12 97 67 122 47 21 77 29 157 42 81 13 100 18 145 39 44 21 117 46 295
100 81 24 124 34 178 40 63 7 119 42 155 98 24 36 24 41 12 86 -30 116 -115
220 -221 272 -36 18 -73 42 -82 54 -15 18 -27 22 -72 21 -36 -1 -61 -7 -73
-18 -10 -9 -35 -19 -55 -23 -21 -4 -42 -11 -49 -16 -26 -22 -400 -139 -444
-139 -13 0 -16 15 -15 98 0 143 -25 210 -125 333 -77 93 -161 169 -226 203
-41 20 -56 20 -75 -1z"/>
</g>
</svg>
